<svg width="41" height="41" viewBox="0 0 41 41" fill="none" xmlns="http://www.w3.org/2000/svg">
<path d="M18.2273 33.2928V40.6871L2.11243 40.6871L2.11243 33.2928L18.2273 33.2928ZM18.1203 5.7423L4.77276 40.6871H0.88929L0.88929 35.6207L14.3897 0.812775L18.1203 0.812775V5.7423ZM16.3926 0.812775V8.23444L0.812843 8.23444L0.812843 0.812775L16.3926 0.812775Z" fill="white"/>
<path d="M30.4055 22.749H27.1981L27.1681 19.1773H29.791C30.2706 19.1773 30.7102 19.0618 31.1099 18.8308C31.5196 18.5998 31.8443 18.2533 32.0841 17.7913C32.3339 17.3293 32.4588 16.7607 32.4588 16.0855C32.4588 15.2148 32.3739 14.5307 32.204 14.0331C32.0441 13.5356 31.7694 13.1802 31.3797 12.967C31 12.736 30.4854 12.6205 29.8359 12.6205H27.8875L27.8875 31.7314H25.6244L25.6244 9.07548L29.8359 9.07548C30.8251 9.07548 31.6844 9.34202 32.4138 9.8751C33.1432 10.4082 33.7078 11.1989 34.1075 12.2473C34.5071 13.2957 34.707 14.584 34.707 16.1121C34.707 17.0717 34.5771 17.9157 34.3173 18.6443C34.0675 19.3728 33.6978 20.0036 33.2082 20.5367C32.7286 21.052 32.1341 21.4785 31.4247 21.8161C31.3947 21.8161 31.3597 21.8783 31.3197 22.0027C31.2898 22.127 31.2598 22.1892 31.2298 22.1892C31.0599 22.3669 30.95 22.5002 30.9001 22.589C30.8601 22.6601 30.8151 22.7045 30.7652 22.7223C30.7252 22.7401 30.6053 22.749 30.4055 22.749ZM30.2556 22.749L30.5703 19.6838C32.1391 19.6838 33.2132 20.3235 33.7927 21.6028C34.3722 22.8645 34.662 24.4726 34.662 26.4272V27.9198C34.662 28.5773 34.677 29.2081 34.707 29.8123C34.7469 30.3987 34.8169 30.8962 34.9168 31.3049V31.7314H32.5937C32.4938 31.2694 32.4338 30.6119 32.4138 29.759C32.4039 28.906 32.3989 28.2841 32.3989 27.8932V26.4539C32.3989 25.1922 32.234 24.2594 31.9043 23.6552C31.5845 23.051 31.035 22.749 30.2556 22.749ZM21.233 20.7233C21.233 23.0688 21.4578 25.2544 21.9074 27.2801C22.367 29.2881 23.0015 31.0472 23.8109 32.5576C24.6202 34.068 25.5544 35.2497 26.6136 36.1026C27.6827 36.9378 28.8268 37.3553 30.0458 37.3553C31.2648 37.3553 32.4039 36.9378 33.463 36.1026C34.5221 35.2497 35.4564 34.068 36.2657 32.5576C37.075 31.0472 37.7045 29.2881 38.1542 27.2801C38.6138 25.2544 38.8436 23.0688 38.8436 20.7233C38.8436 18.3777 38.6138 16.201 38.1542 14.193C37.7045 12.1673 37.075 10.4082 36.2657 8.91555C35.4564 7.40516 34.5221 6.23239 33.463 5.39723C32.4039 4.56207 31.2648 4.14449 30.0458 4.14449C28.8268 4.14449 27.6827 4.56207 26.6136 5.39723C25.5544 6.23239 24.6202 7.40516 23.8109 8.91555C23.0015 10.4082 22.367 12.1673 21.9074 14.193C21.4578 16.201 21.233 18.3777 21.233 20.7233ZM19.4045 20.7233C19.4045 17.8979 19.6792 15.277 20.2288 12.8603C20.7783 10.4437 21.5427 8.33805 22.5219 6.54335C23.5011 4.73088 24.6302 3.3271 25.9092 2.33202C27.1981 1.31917 28.577 0.812744 30.0458 0.812744C31.5146 0.812744 32.8885 1.31917 34.1674 2.33202C35.4564 3.3271 36.5854 4.73088 37.5546 6.54335C38.5338 8.33805 39.2982 10.4437 39.8478 12.8603C40.4073 15.277 40.6871 17.8979 40.6871 20.7233C40.6871 23.5486 40.4073 26.1696 39.8478 28.5862C39.2982 31.0028 38.5338 33.1174 37.5546 34.9298C36.5854 36.7423 35.4564 38.155 34.1674 39.1678C32.8885 40.1807 31.5146 40.6871 30.0458 40.6871C28.577 40.6871 27.1981 40.1807 25.9092 39.1678C24.6302 38.155 23.5011 36.7423 22.5219 34.9298C21.5427 33.1174 20.7783 31.0028 20.2288 28.5862C19.6792 26.1696 19.4045 23.5486 19.4045 20.7233Z" fill="white"/>
</svg>
