<svg width="528" height="94" viewBox="0 0 528 94" fill="none" xmlns="http://www.w3.org/2000/svg">
<path d="M484.75 51.4375H471.375L471.25 43.0625H482.188C484.188 43.0625 486.021 42.7917 487.688 42.25C489.396 41.7083 490.75 40.8958 491.75 39.8125C492.792 38.7292 493.312 37.3958 493.312 35.8125C493.312 33.7708 492.958 32.1667 492.25 31C491.583 29.8333 490.438 29 488.812 28.5C487.229 27.9583 485.083 27.6875 482.375 27.6875H474.25V72.5H464.812V19.375H482.375C486.5 19.375 490.083 20 493.125 21.25C496.167 22.5 498.521 24.3542 500.188 26.8125C501.854 29.2708 502.688 32.2917 502.688 35.875C502.688 38.125 502.146 40.1042 501.062 41.8125C500.021 43.5208 498.479 45 496.438 46.25C494.438 47.4583 491.958 48.4583 489 49.25C488.875 49.25 488.729 49.3958 488.562 49.6875C488.438 49.9792 488.312 50.125 488.188 50.125C487.479 50.5417 487.021 50.8542 486.812 51.0625C486.646 51.2292 486.458 51.3333 486.25 51.375C486.083 51.4167 485.583 51.4375 484.75 51.4375ZM484.125 51.4375L485.438 44.25C491.979 44.25 496.458 45.75 498.875 48.75C501.292 51.7083 502.5 55.4792 502.5 60.0625V63.5625C502.5 65.1042 502.562 66.5833 502.688 68C502.854 69.375 503.146 70.5417 503.562 71.5V72.5H493.875C493.458 71.4167 493.208 69.875 493.125 67.875C493.083 65.875 493.062 64.4167 493.062 63.5V60.125C493.062 57.1667 492.375 54.9792 491 53.5625C489.667 52.1458 487.375 51.4375 484.125 51.4375ZM446.5 46.6875C446.5 52.1875 447.438 57.3125 449.312 62.0625C451.229 66.7708 453.875 70.8958 457.25 74.4375C460.625 77.9792 464.521 80.75 468.938 82.75C473.396 84.7083 478.167 85.6875 483.25 85.6875C488.333 85.6875 493.083 84.7083 497.5 82.75C501.917 80.75 505.812 77.9792 509.188 74.4375C512.562 70.8958 515.188 66.7708 517.062 62.0625C518.979 57.3125 519.938 52.1875 519.938 46.6875C519.938 41.1875 518.979 36.0833 517.062 31.375C515.188 26.625 512.562 22.5 509.188 19C505.812 15.4583 501.917 12.7083 497.5 10.75C493.083 8.79167 488.333 7.8125 483.25 7.8125C478.167 7.8125 473.396 8.79167 468.938 10.75C464.521 12.7083 460.625 15.4583 457.25 19C453.875 22.5 451.229 26.625 449.312 31.375C447.438 36.0833 446.5 41.1875 446.5 46.6875ZM438.875 46.6875C438.875 40.0625 440.021 33.9167 442.312 28.25C444.604 22.5833 447.792 17.6458 451.875 13.4375C455.958 9.1875 460.667 5.89583 466 3.5625C471.375 1.1875 477.125 0 483.25 0C489.375 0 495.104 1.1875 500.438 3.5625C505.812 5.89583 510.521 9.1875 514.562 13.4375C518.646 17.6458 521.833 22.5833 524.125 28.25C526.458 33.9167 527.625 40.0625 527.625 46.6875C527.625 53.3125 526.458 59.4583 524.125 65.125C521.833 70.7917 518.646 75.75 514.562 80C510.521 84.25 505.812 87.5625 500.438 89.9375C495.104 92.3125 489.375 93.5 483.25 93.5C477.125 93.5 471.375 92.3125 466 89.9375C460.667 87.5625 455.958 84.25 451.875 80C447.792 75.75 444.604 70.7917 442.312 65.125C440.021 59.4583 438.875 53.3125 438.875 46.6875Z" fill="white"/>
<path d="M430.438 75.375V92.25H364.562V75.375H430.438ZM430 12.5L375.438 92.25H359.562V80.6875L414.75 1.25H430V12.5ZM422.938 1.25V18.1875H359.25V1.25H422.938Z" fill="white"/>
<path d="M346.875 1.25V92.25H325V1.25H346.875Z" fill="white"/>
<path d="M278.062 53.5625H254.625L254.5 39.1875H273.5C276.917 39.1875 279.646 38.8125 281.688 38.0625C283.729 37.2708 285.208 36.125 286.125 34.625C287.083 33.125 287.562 31.25 287.562 29C287.562 26.4167 287.083 24.3333 286.125 22.75C285.167 21.1667 283.646 20.0208 281.562 19.3125C279.521 18.5625 276.875 18.1875 273.625 18.1875H262.875V92.25H240.938V1.25H273.625C279.25 1.25 284.271 1.77083 288.688 2.8125C293.104 3.8125 296.854 5.35417 299.938 7.4375C303.062 9.52083 305.438 12.1458 307.062 15.3125C308.688 18.4375 309.5 22.125 309.5 26.375C309.5 30.0833 308.708 33.5625 307.125 36.8125C305.542 40.0625 302.896 42.7083 299.188 44.75C295.521 46.75 290.5 47.7917 284.125 47.875L278.062 53.5625ZM277.188 92.25H249.312L256.812 75.375H277.188C280.188 75.375 282.583 74.9167 284.375 74C286.208 73.0417 287.521 71.7917 288.312 70.25C289.146 68.6667 289.562 66.9167 289.562 65C289.562 62.6667 289.167 60.6458 288.375 58.9375C287.625 57.2292 286.417 55.9167 284.75 55C283.083 54.0417 280.854 53.5625 278.062 53.5625H259.625L259.75 39.1875H281.812L286.938 44.9375C293.021 44.6875 297.833 45.5417 301.375 47.5C304.958 49.4583 307.521 52.0417 309.062 55.25C310.604 58.4583 311.375 61.8125 311.375 65.3125C311.375 71.2708 310.083 76.25 307.5 80.25C304.958 84.25 301.146 87.25 296.062 89.25C290.979 91.25 284.688 92.25 277.188 92.25Z" fill="white"/>
<path d="M231.938 75.375V92.25H183.438V75.375H231.938ZM191.25 1.25V92.25H169.312V1.25H191.25ZM225.688 37.375V53.6875H183.438V37.375H225.688ZM232.125 1.25V18.1875H183.438V1.25H232.125Z" fill="white"/>
<path d="M120.625 20.375L98.4375 92.25H74.875L108.312 1.25H123.25L120.625 20.375ZM139 92.25L116.75 20.375L113.875 1.25H129L162.625 92.25H139ZM138.125 58.3125V75.25H91.4375V58.3125H138.125Z" fill="white"/>
<path d="M71.1875 75.375V92.25H5.3125V75.375H71.1875ZM70.75 12.5L16.1875 92.25H0.3125V80.6875L55.5 1.25H70.75V12.5ZM63.6875 1.25V18.1875H0V1.25H63.6875Z" fill="white"/>
</svg>
