<svg width="60" height="60" viewBox="0 0 60 60" fill="none" xmlns="http://www.w3.org/2000/svg">
<path d="M27.2273 42.2928V49.6871L11.1124 49.6871V42.2928L27.2273 42.2928ZM27.1203 14.7423L13.7728 49.6871H9.88929V44.6207L23.3897 9.81277H27.1203V14.7423ZM25.3926 9.81277V17.2344L9.81284 17.2344V9.81277L25.3926 9.81277Z" fill="black"/>
<path d="M39.4055 31.749H36.1981L36.1681 28.1773H38.791C39.2706 28.1773 39.7102 28.0618 40.1099 27.8308C40.5196 27.5998 40.8443 27.2533 41.0841 26.7913C41.3339 26.3293 41.4588 25.7607 41.4588 25.0855C41.4588 24.2148 41.3739 23.5307 41.204 23.0331C41.0441 22.5356 40.7694 22.1802 40.3797 21.967C40 21.736 39.4854 21.6205 38.8359 21.6205H36.8875V40.7314H34.6244V18.0755L38.8359 18.0755C39.8251 18.0755 40.6844 18.342 41.4138 18.8751C42.1432 19.4082 42.7078 20.1989 43.1075 21.2473C43.5071 22.2957 43.707 23.584 43.707 25.1121C43.707 26.0717 43.5771 26.9157 43.3173 27.6443C43.0675 28.3728 42.6978 29.0036 42.2082 29.5367C41.7286 30.052 41.1341 30.4785 40.4247 30.8161C40.3947 30.8161 40.3597 30.8783 40.3197 31.0027C40.2898 31.127 40.2598 31.1892 40.2298 31.1892C40.0599 31.3669 39.95 31.5002 39.9001 31.589C39.8601 31.6601 39.8151 31.7045 39.7652 31.7223C39.7252 31.7401 39.6053 31.749 39.4055 31.749ZM39.2556 31.749L39.5703 28.6838C41.1391 28.6838 42.2132 29.3235 42.7927 30.6028C43.3722 31.8645 43.662 33.4726 43.662 35.4272V36.9198C43.662 37.5773 43.677 38.2081 43.707 38.8123C43.7469 39.3987 43.8169 39.8962 43.9168 40.3049V40.7314H41.5937C41.4938 40.2694 41.4338 39.6119 41.4138 38.759C41.4039 37.906 41.3989 37.2841 41.3989 36.8932V35.4539C41.3989 34.1922 41.234 33.2594 40.9043 32.6552C40.5845 32.051 40.035 31.749 39.2556 31.749ZM30.233 29.7233C30.233 32.0688 30.4578 34.2544 30.9074 36.2801C31.367 38.2881 32.0015 40.0472 32.8109 41.5576C33.6202 43.068 34.5544 44.2497 35.6136 45.1026C36.6827 45.9378 37.8268 46.3553 39.0458 46.3553C40.2648 46.3553 41.4039 45.9378 42.463 45.1026C43.5221 44.2497 44.4564 43.068 45.2657 41.5576C46.075 40.0472 46.7045 38.2881 47.1542 36.2801C47.6138 34.2544 47.8436 32.0688 47.8436 29.7233C47.8436 27.3777 47.6138 25.201 47.1542 23.193C46.7045 21.1673 46.075 19.4082 45.2657 17.9156C44.4564 16.4052 43.5221 15.2324 42.463 14.3972C41.4039 13.5621 40.2648 13.1445 39.0458 13.1445C37.8268 13.1445 36.6827 13.5621 35.6136 14.3972C34.5544 15.2324 33.6202 16.4052 32.8109 17.9156C32.0015 19.4082 31.367 21.1673 30.9074 23.193C30.4578 25.201 30.233 27.3777 30.233 29.7233ZM28.4045 29.7233C28.4045 26.8979 28.6792 24.277 29.2288 21.8603C29.7783 19.4437 30.5427 17.338 31.5219 15.5433C32.5011 13.7309 33.6302 12.3271 34.9092 11.332C36.1981 10.3192 37.577 9.81274 39.0458 9.81274C40.5146 9.81274 41.8885 10.3192 43.1674 11.332C44.4564 12.3271 45.5854 13.7309 46.5546 15.5433C47.5338 17.338 48.2982 19.4437 48.8478 21.8603C49.4073 24.277 49.6871 26.8979 49.6871 29.7233C49.6871 32.5486 49.4073 35.1696 48.8478 37.5862C48.2982 40.0028 47.5338 42.1174 46.5546 43.9298C45.5854 45.7423 44.4564 47.155 43.1674 48.1678C41.8885 49.1807 40.5146 49.6871 39.0458 49.6871C37.577 49.6871 36.1981 49.1807 34.9092 48.1678C33.6302 47.155 32.5011 45.7423 31.5219 43.9298C30.5427 42.1174 29.7783 40.0028 29.2288 37.5862C28.6792 35.1696 28.4045 32.5486 28.4045 29.7233Z" fill="black"/>
</svg>
